<svg width="147" height="235" viewBox="0 0 147 235" fill="none" xmlns="http://www.w3.org/2000/svg">
<g filter="url(#filter0_d_19_33)">
<path fill-rule="evenodd" clip-rule="evenodd" d="M89.5461 0.229401C89.5346 0.521401 90.0541 1.8714 90.7001 3.2294C92.7346 7.5039 93.7066 12.0559 93.3656 15.7074C93.1811 17.6874 93.2766 19.4519 93.6086 20.1804C94.2246 21.5329 93.4906 27.8804 92.4551 30.1529C91.2986 32.6909 90.9296 32.3404 84.8541 22.9299C81.2101 17.2859 79.7111 15.2549 76.1011 11.0729C71.6736 5.9439 71.7541 6.7659 76.5051 15.1979C77.1251 16.2979 77.8136 17.4229 78.0356 17.6979C78.5231 18.3019 81.6021 23.6564 83.6416 27.4479C84.5771 29.1859 85.1496 31.0259 85.1986 32.4479L85.2756 34.6979L83.2756 34.8419C82.0131 34.9329 79.6161 34.4129 76.7756 33.4329C70.1756 31.1544 70.0121 31.1354 72.0256 32.8874C72.9881 33.7249 74.9531 34.9249 76.3921 35.5539C77.8311 36.1834 79.0126 36.8609 79.0171 37.0599C79.0431 38.1629 75.8016 38.9479 71.2226 38.9479C66.7931 38.9479 66.2246 38.8369 64.7001 37.6744C62.8416 36.2569 59.1606 31.7449 54.9296 25.6979C50.4911 19.3544 44.5481 14.2589 43.1816 15.6249C42.9111 15.8954 45.2686 19.2689 48.5106 23.2514C53.2551 29.0794 55.8511 33.4309 56.3156 36.3344C56.7111 38.8104 55.2431 40.6859 51.6726 42.2649C47.3936 44.1569 38.1996 43.8959 31.7756 41.6994C28.4691 40.5684 24.0256 37.4024 24.0256 36.1769C24.0256 35.6729 23.6286 35.5524 22.6271 35.7524C19.7346 36.3309 11.9901 30.7654 10.1036 26.7529C9.12362 24.6674 7.30112 23.0059 6.67762 23.6294C6.53312 23.7739 6.77312 25.0859 7.21112 26.5449C7.64962 28.0039 8.24562 30.5994 8.53662 32.3119L9.06562 35.4264L7.42062 36.9254C6.51612 37.7494 5.38212 38.5574 4.90062 38.7199C3.31162 39.2564 3.99162 39.8879 5.64712 39.4129C10.6401 37.9809 17.7196 39.4484 20.6506 42.5234C22.2806 44.2329 22.5256 44.8019 22.5256 46.8754C22.5256 49.2124 22.4386 49.3454 18.2076 53.4789C12.2576 59.2924 11.5256 60.5519 11.5256 64.9794C11.5256 69.2339 12.2641 69.4219 13.5951 65.5069C14.0871 64.0584 14.9766 62.0864 15.5711 61.1244C17.2546 58.3999 20.0896 57.7859 20.7901 59.9939C20.9566 60.5189 21.2921 60.9479 21.5356 60.9479C22.0081 60.9479 23.0181 57.7939 23.0226 56.3054C23.0301 54.0289 26.6326 50.9159 30.0256 50.2549C30.9881 50.0674 35.0381 49.6994 39.0256 49.4369C46.5931 48.9394 48.9616 48.6004 54.7756 47.1854C59.9881 45.9169 63.0221 45.5049 71.0256 44.9789C75.0131 44.7169 79.1196 44.2654 80.1506 43.9754C81.1821 43.6854 82.8696 43.2089 83.9006 42.9164C90.6321 41.0079 94.4996 40.5904 94.8736 41.7324C95.0776 42.3559 94.1976 42.8099 88.7756 44.8789C83.9476 46.7214 79.2286 47.9474 76.9536 47.9499C74.5971 47.9529 70.3116 49.5824 70.1261 50.5464C69.9576 51.4209 73.5111 53.2789 77.5256 54.4154C78.7631 54.7654 80.2926 55.2534 80.9241 55.4999C82.4841 56.1084 88.3916 56.0689 88.7756 55.4479C89.2231 54.7239 92.8756 54.8284 93.1431 55.5729C93.9641 57.8579 89.4546 63.4214 83.5111 67.4579C80.8246 69.2819 80.1181 69.5314 77.6171 69.5389C75.1306 69.5459 71.7251 70.2449 66.2166 71.8779C65.3591 72.1324 60.0716 72.4854 54.4666 72.6624C44.7836 72.9689 38.9891 73.5429 36.7756 74.4154C36.2256 74.6319 34.8756 75.0914 33.7756 75.4359C29.0226 76.9239 24.3986 79.6769 21.0026 83.0394C17.1186 86.8849 15.4461 89.4834 13.7366 94.3264C12.7461 97.1329 12.5451 98.6814 12.5361 103.567C12.5251 109.825 13.4301 114.341 15.7471 119.59C18.4766 125.772 20.7471 133.78 21.5196 139.948C22.1891 145.294 22.9281 149.882 23.4926 152.198C23.7606 153.298 24.1941 155.098 24.4561 156.198C25.1731 159.208 28.1506 168.018 29.5251 171.198C30.2451 172.863 30.5856 175.38 31.0471 182.448C31.2896 186.16 31.7176 190.323 31.9986 191.698C33.4371 198.735 34.0721 204.147 34.5766 213.679C34.8816 219.444 35.3266 224.675 35.5661 225.304C36.0391 226.548 37.2361 226.819 37.8541 225.823C38.0671 225.479 38.2996 217.885 38.3706 208.948C38.4416 200.01 38.5511 191.348 38.6136 189.698C38.6761 188.048 38.3446 183.583 37.8766 179.775C37.4056 175.943 37.0456 169.693 37.0701 165.775C37.1261 156.837 38.1111 144.685 38.7756 144.736C39.0506 144.757 39.6231 145.716 40.0481 146.866C41.1511 149.853 42.1811 150.765 43.6781 150.083C45.8486 149.094 46.2861 149.947 46.1756 154.952C46.0631 160.057 44.9411 163.908 42.3521 168.074L40.7756 170.61V196.654C40.7756 223.465 40.9766 226.448 42.7851 226.448C44.0021 226.448 44.2391 225.313 44.6121 217.698C45.1666 206.385 45.9196 198.038 46.6871 194.698C47.5106 191.112 48.8916 185.79 49.5501 183.662C49.8116 182.818 50.0256 181.535 50.0256 180.811C50.0256 178.601 52.0496 174.06 53.8271 172.283C55.4091 170.701 56.0776 170.624 57.2251 171.892C58.0181 172.768 58.0411 174.053 57.5451 189.797C57.2506 199.126 56.7886 207.53 56.5181 208.475C56.2471 209.419 56.0256 210.946 56.0256 211.867C56.0256 212.789 55.6686 214.772 55.2326 216.273C54.2431 219.676 54.5106 220.448 56.6826 220.448C59.6766 220.448 59.9166 219.727 60.1821 209.948C60.4746 199.163 61.2861 194.635 63.9886 188.698C65.9276 184.439 66.0256 183.826 66.0256 175.968C66.0256 170.993 66.3051 166.575 66.7756 164.117C67.1881 161.961 67.5376 159.41 67.5526 158.448C67.5941 155.803 69.1141 152.309 70.5366 151.59C71.9226 150.888 77.0016 150.798 80.7216 151.409C84.9396 152.102 84.8811 151.868 85.1836 169.166C85.3971 181.377 85.6391 185.23 86.4716 189.698C87.2396 193.821 87.5001 197.302 87.5111 203.606C87.5191 208.415 87.7471 212.427 88.0431 212.981C88.7151 214.236 90.6256 214.219 91.7766 212.947C92.6081 212.028 92.6571 211.178 92.3716 202.594C92.1316 195.383 92.2246 192.493 92.7776 189.97C93.8356 185.143 94.5256 177.75 94.5256 171.241C94.5256 168.081 94.7786 164.865 95.0881 164.096C98.9301 154.539 102.026 144.557 102.026 141.722C102.026 140.364 103.257 137.945 105.727 134.448C106.601 133.21 107.614 131.523 107.979 130.698C108.344 129.873 108.841 128.807 109.084 128.33C109.327 127.852 109.526 127.144 109.526 126.756C109.526 126.367 110.086 125.071 110.77 123.874C111.632 122.365 112.016 120.935 112.02 119.212C112.023 117.845 112.519 115.145 113.123 113.212C114.05 110.241 114.672 109.251 117.15 106.809C120.382 103.622 121.526 101.178 121.526 97.4594C121.526 96.1604 121.725 94.4449 121.967 93.6474C122.21 92.8504 122.679 91.1854 123.009 89.9479C123.338 88.7104 123.823 86.9104 124.085 85.9479C124.346 84.9854 124.754 82.6229 124.989 80.6979C125.375 77.5489 125.627 76.9724 127.509 74.9494C128.659 73.7129 129.726 72.0734 129.879 71.3064C130.032 70.5394 130.588 69.6109 131.114 69.2424C131.886 68.7014 132.105 67.8159 132.251 64.6354C132.35 62.4699 132.649 60.1354 132.915 59.4479C133.18 58.7604 133.682 57.2979 134.03 56.1979C135.256 52.3209 137.914 47.1699 139.958 44.7069C141.631 42.6924 142.026 41.8294 142.026 40.1934C142.026 37.8229 140.972 36.0814 139.401 35.8569C137.943 35.6489 137.765 34.4814 138.554 30.2969C139.087 27.4739 139.084 26.5524 138.536 25.0359C137.671 22.6414 136.855 22.0999 133.529 21.7104C129.34 21.2204 129.026 21.0599 129.026 19.4074C129.026 18.5974 128.833 17.5434 128.597 17.0659C126.916 13.6599 126.232 12.5334 125.111 11.3229C124.411 10.5664 123.543 9.9479 123.182 9.9479C122.821 9.9479 122.526 9.7679 122.526 9.5484C122.526 8.8859 118.968 7.8009 115.776 7.4899L112.776 7.1979L111.439 4.4999C109.855 1.3039 108.46 -0.214599 107.328 0.0244012C106.608 0.176401 106.649 0.416401 107.658 1.9479C109.32 4.4709 110.026 7.8074 110.026 13.1439C110.026 17.7854 109.215 21.1349 107.993 21.5419C107.686 21.6444 105.487 21.0879 103.106 20.3059C98.5456 18.8079 96.5331 17.2134 96.5281 15.0964C96.5266 14.4904 96.3241 13.4779 96.0776 12.8464C95.8311 12.2149 95.3511 10.6854 95.0101 9.4479C93.7426 4.8459 93.2321 3.7499 91.4211 1.7479C90.4011 0.620401 89.5576 -0.0630989 89.5461 0.229401ZM118.102 9.9929C122.798 12.7619 125.187 16.2024 125.241 20.2754C125.27 22.4419 125.028 23.1589 123.722 24.7729C121.756 27.2039 118.155 29.1249 116.394 28.6829C114.209 28.1344 113.032 23.8239 113.029 16.3554C113.026 10.7224 113.518 8.4479 114.741 8.4479C115.149 8.4479 116.661 9.1434 118.102 9.9929ZM102.428 22.5139C105.202 23.9944 106.736 25.4024 107.97 27.5979C109.337 30.0324 109.303 30.5029 107.651 32.0384C106.079 33.4984 103.616 34.1039 101.139 33.6394C98.5081 33.1459 97.5296 31.1184 97.5276 26.1564C97.5266 23.9334 97.6756 21.9644 97.8591 21.7814C98.4976 21.1429 100.445 21.4549 102.428 22.5139Z" fill="white"/>
</g>
<defs>
<filter id="filter0_d_19_33" x="0" y="0" width="146.026" height="234.448" filterUnits="userSpaceOnUse" color-interpolation-filters="sRGB">
<feFlood flood-opacity="0" result="BackgroundImageFix"/>
<feColorMatrix in="SourceAlpha" type="matrix" values="0 0 0 0 0 0 0 0 0 0 0 0 0 0 0 0 0 0 127 0" result="hardAlpha"/>
<feOffset dy="4"/>
<feGaussianBlur stdDeviation="2"/>
<feComposite in2="hardAlpha" operator="out"/>
<feColorMatrix type="matrix" values="0 0 0 0 0 0 0 0 0 0 0 0 0 0 0 0 0 0 0.25 0"/>
<feBlend mode="normal" in2="BackgroundImageFix" result="effect1_dropShadow_19_33"/>
<feBlend mode="normal" in="SourceGraphic" in2="effect1_dropShadow_19_33" result="shape"/>
</filter>
</defs>
</svg>
