<svg width="220" height="308" viewBox="0 0 220 308" fill="none" xmlns="http://www.w3.org/2000/svg">
  <g filter="url(#filter0_d_16_7)">
    <path fill-rule="evenodd" clip-rule="evenodd"
      d="M126.546 41.2294C126.535 41.5214 127.054 42.8714 127.7 44.2294C129.735 48.5039 130.707 53.0559 130.366 56.7074C130.181 58.6874 130.277 60.4519 130.609 61.1804C131.225 62.5329 130.491 68.8804 129.455 71.1529C128.299 73.6909 127.93 73.3404 121.854 63.9299C118.21 58.2859 116.711 56.2549 113.101 52.0729C108.674 46.9439 108.754 47.7659 113.505 56.1979C114.125 57.2979 114.814 58.4229 115.036 58.6979C115.523 59.3019 118.602 64.6564 120.642 68.4479C121.577 70.1859 122.15 72.0259 122.199 73.4479L122.276 75.6979L120.276 75.8419C119.013 75.9329 116.616 75.4129 113.776 74.4329C107.176 72.1544 107.012 72.1354 109.026 73.8874C109.988 74.7249 111.953 75.9249 113.392 76.5539C114.831 77.1834 116.013 77.8609 116.017 78.0599C116.043 79.1629 112.802 79.9479 108.223 79.9479C103.793 79.9479 103.225 79.8369 101.7 78.6744C99.8416 77.2569 96.1606 72.7449 91.9296 66.6979C87.4911 60.3544 81.5481 55.2589 80.1816 56.6249C79.9111 56.8954 82.2686 60.2689 85.5106 64.2514C90.2551 70.0794 92.8511 74.4309 93.3156 77.3344C93.7111 79.8104 92.2431 81.6859 88.6726 83.2649C84.3936 85.1569 75.1996 84.8959 68.7756 82.6994C65.4691 81.5684 61.0256 78.4024 61.0256 77.1769C61.0256 76.6729 60.6286 76.5524 59.6271 76.7524C56.7346 77.3309 48.9901 71.7654 47.1036 67.7529C46.1236 65.6674 44.3011 64.0059 43.6776 64.6294C43.5331 64.7739 43.7731 66.0859 44.2111 67.5449C44.6496 69.0039 45.2456 71.5994 45.5366 73.3119L46.0656 76.4264L44.4206 77.9254C43.5161 78.7494 42.3821 79.5574 41.9006 79.7199C40.3116 80.2564 40.9916 80.8879 42.6471 80.4129C47.6401 78.9809 54.7196 80.4484 57.6506 83.5234C59.2806 85.2329 59.5256 85.8019 59.5256 87.8754C59.5256 90.2124 59.4386 90.3454 55.2076 94.4789C49.2576 100.292 48.5256 101.552 48.5256 105.979C48.5256 110.234 49.2641 110.422 50.5951 106.507C51.0871 105.058 51.9766 103.086 52.5711 102.124C54.2546 99.3999 57.0896 98.7859 57.7901 100.994C57.9566 101.519 58.2921 101.948 58.5356 101.948C59.0081 101.948 60.0181 98.7939 60.0226 97.3054C60.0301 95.0289 63.6326 91.9159 67.0256 91.2549C67.9881 91.0674 72.0381 90.6994 76.0256 90.4369C83.5931 89.9394 85.9616 89.6004 91.7756 88.1854C96.9881 86.9169 100.022 86.5049 108.026 85.9789C112.013 85.7169 116.12 85.2654 117.151 84.9754C118.182 84.6854 119.87 84.2089 120.901 83.9164C127.632 82.0079 131.5 81.5904 131.874 82.7324C132.078 83.3559 131.198 83.8099 125.776 85.8789C120.948 87.7214 116.229 88.9474 113.954 88.9499C111.597 88.9529 107.312 90.5824 107.126 91.5464C106.958 92.4209 110.511 94.2789 114.526 95.4154C115.763 95.7654 117.293 96.2534 117.924 96.4999C119.484 97.1084 125.392 97.0689 125.776 96.4479C126.223 95.7239 129.876 95.8284 130.143 96.5729C130.964 98.8579 126.455 104.421 120.511 108.458C117.825 110.282 117.118 110.531 114.617 110.539C112.131 110.546 108.725 111.245 103.217 112.878C102.359 113.132 97.0716 113.485 91.4666 113.662C81.7836 113.969 75.9891 114.543 73.7756 115.415C73.2256 115.632 71.8756 116.091 70.7756 116.436C66.0226 117.924 61.3986 120.677 58.0026 124.039C54.1186 127.885 52.4461 130.483 50.7366 135.326C49.7461 138.133 49.5451 139.681 49.5361 144.567C49.5251 150.825 50.4301 155.341 52.7471 160.59C55.4766 166.772 57.7471 174.78 58.5196 180.948C59.1891 186.294 59.9281 190.882 60.4926 193.198C60.7606 194.298 61.1941 196.098 61.4561 197.198C62.1731 200.208 65.1506 209.018 66.5251 212.198C67.2451 213.863 67.5856 216.38 68.0471 223.448C68.2896 227.16 68.7176 231.323 68.9986 232.698C70.4371 239.735 71.0721 245.147 71.5766 254.679C71.8816 260.444 72.3266 265.675 72.5661 266.304C73.0391 267.548 74.2361 267.819 74.8541 266.823C75.0671 266.479 75.2996 258.885 75.3706 249.948C75.4416 241.01 75.5511 232.348 75.6136 230.698C75.6761 229.048 75.3446 224.583 74.8766 220.775C74.4056 216.943 74.0456 210.693 74.0701 206.775C74.1261 197.837 75.1111 185.685 75.7756 185.736C76.0506 185.757 76.6231 186.716 77.0481 187.866C78.1511 190.853 79.1811 191.765 80.6781 191.083C82.8486 190.094 83.2861 190.947 83.1756 195.952C83.0631 201.057 81.9411 204.908 79.3521 209.074L77.7756 211.61V237.654C77.7756 264.465 77.9766 267.448 79.7851 267.448C81.0021 267.448 81.2391 266.313 81.6121 258.698C82.1666 247.385 82.9196 239.038 83.6871 235.698C84.5106 232.112 85.8916 226.79 86.5501 224.662C86.8116 223.818 87.0256 222.535 87.0256 221.811C87.0256 219.601 89.0496 215.06 90.8271 213.283C92.4091 211.701 93.0776 211.624 94.2251 212.892C95.0181 213.768 95.0411 215.053 94.5451 230.797C94.2506 240.126 93.7886 248.53 93.5181 249.475C93.2471 250.419 93.0256 251.946 93.0256 252.867C93.0256 253.789 92.6686 255.772 92.2326 257.273C91.2431 260.676 91.5106 261.448 93.6826 261.448C96.6766 261.448 96.9166 260.727 97.1821 250.948C97.4746 240.163 98.2861 235.635 100.989 229.698C102.928 225.439 103.026 224.826 103.026 216.968C103.026 211.993 103.305 207.575 103.776 205.117C104.188 202.961 104.538 200.41 104.553 199.448C104.594 196.803 106.114 193.309 107.537 192.59C108.923 191.888 114.002 191.798 117.722 192.409C121.94 193.102 121.881 192.868 122.184 210.166C122.397 222.377 122.639 226.23 123.472 230.698C124.24 234.821 124.5 238.302 124.511 244.606C124.519 249.415 124.747 253.427 125.043 253.981C125.715 255.236 127.626 255.219 128.777 253.947C129.608 253.028 129.657 252.178 129.372 243.594C129.132 236.383 129.225 233.493 129.778 230.97C130.836 226.143 131.526 218.75 131.526 212.241C131.526 209.081 131.779 205.865 132.088 205.096C135.93 195.539 139.026 185.557 139.026 182.722C139.026 181.364 140.257 178.945 142.727 175.448C143.601 174.21 144.614 172.523 144.979 171.698C145.344 170.873 145.841 169.807 146.084 169.33C146.327 168.852 146.526 168.144 146.526 167.756C146.526 167.367 147.086 166.071 147.77 164.874C148.632 163.365 149.016 161.935 149.02 160.212C149.023 158.845 149.519 156.145 150.123 154.212C151.05 151.241 151.672 150.251 154.15 147.809C157.382 144.622 158.526 142.178 158.526 138.459C158.526 137.16 158.725 135.445 158.967 134.647C159.21 133.85 159.679 132.185 160.009 130.948C160.338 129.71 160.823 127.91 161.085 126.948C161.346 125.985 161.754 123.623 161.989 121.698C162.375 118.549 162.627 117.972 164.509 115.949C165.659 114.713 166.726 113.073 166.879 112.306C167.032 111.539 167.588 110.611 168.114 110.242C168.886 109.701 169.105 108.816 169.251 105.635C169.35 103.47 169.649 101.135 169.915 100.448C170.18 99.7604 170.682 98.2979 171.03 97.1979C172.256 93.3209 174.914 88.1699 176.958 85.7069C178.631 83.6924 179.026 82.8294 179.026 81.1934C179.026 78.8229 177.972 77.0814 176.401 76.8569C174.943 76.6489 174.765 75.4814 175.554 71.2969C176.087 68.4739 176.084 67.5524 175.536 66.0359C174.671 63.6414 173.855 63.0999 170.529 62.7104C166.34 62.2204 166.026 62.0599 166.026 60.4074C166.026 59.5974 165.833 58.5434 165.597 58.0659C163.916 54.6599 163.232 53.5334 162.111 52.3229C161.411 51.5664 160.543 50.9479 160.182 50.9479C159.821 50.9479 159.526 50.7679 159.526 50.5484C159.526 49.8859 155.968 48.8009 152.776 48.4899L149.776 48.1979L148.439 45.4999C146.855 42.3039 145.46 40.7854 144.328 41.0244C143.608 41.1764 143.649 41.4164 144.658 42.9479C146.32 45.4709 147.026 48.8074 147.026 54.1439C147.026 58.7854 146.215 62.1349 144.993 62.5419C144.686 62.6444 142.487 62.0879 140.106 61.3059C135.546 59.8079 133.533 58.2134 133.528 56.0964C133.527 55.4904 133.324 54.4779 133.078 53.8464C132.831 53.2149 132.351 51.6854 132.01 50.4479C130.743 45.8459 130.232 44.7499 128.421 42.7479C127.401 41.6204 126.558 40.9369 126.546 41.2294ZM155.102 50.9929C159.798 53.7619 162.187 57.2024 162.241 61.2754C162.27 63.4419 162.028 64.1589 160.722 65.7729C158.756 68.2039 155.155 70.1249 153.394 69.6829C151.209 69.1344 150.032 64.8239 150.029 57.3554C150.026 51.7224 150.518 49.4479 151.741 49.4479C152.149 49.4479 153.661 50.1434 155.102 50.9929ZM139.428 63.5139C142.202 64.9944 143.736 66.4024 144.97 68.5979C146.337 71.0324 146.303 71.5029 144.651 73.0384C143.079 74.4984 140.616 75.1039 138.139 74.6394C135.508 74.1459 134.53 72.1184 134.528 67.1564C134.527 64.9334 134.676 62.9644 134.859 62.7814C135.498 62.1429 137.445 62.4549 139.428 63.5139Z"
      stroke="#D7D7D7" shape-rendering="crispEdges" />
  </g>
  <g filter="url(#filter1_f_16_7)">
    <path fill-rule="evenodd" clip-rule="evenodd"
      d="M126.546 41.2294C126.535 41.5214 127.054 42.8714 127.7 44.2294C129.735 48.5039 130.707 53.0559 130.366 56.7074C130.181 58.6874 130.277 60.4519 130.609 61.1804C131.225 62.5329 130.491 68.8804 129.455 71.1529C128.299 73.6909 127.93 73.3404 121.854 63.9299C118.21 58.2859 116.711 56.2549 113.101 52.0729C108.674 46.9439 108.754 47.7659 113.505 56.1979C114.125 57.2979 114.814 58.4229 115.036 58.6979C115.523 59.3019 118.602 64.6564 120.642 68.4479C121.577 70.1859 122.15 72.0259 122.199 73.4479L122.276 75.6979L120.276 75.8419C119.013 75.9329 116.616 75.4129 113.776 74.4329C107.176 72.1544 107.012 72.1354 109.026 73.8874C109.988 74.7249 111.953 75.9249 113.392 76.5539C114.831 77.1834 116.013 77.8609 116.017 78.0599C116.043 79.1629 112.802 79.9479 108.223 79.9479C103.793 79.9479 103.225 79.8369 101.7 78.6744C99.8416 77.2569 96.1606 72.7449 91.9296 66.6979C87.4911 60.3544 81.5481 55.2589 80.1816 56.6249C79.9111 56.8954 82.2686 60.2689 85.5106 64.2514C90.2551 70.0794 92.8511 74.4309 93.3156 77.3344C93.7111 79.8104 92.2431 81.6859 88.6726 83.2649C84.3936 85.1569 75.1996 84.8959 68.7756 82.6994C65.4691 81.5684 61.0256 78.4024 61.0256 77.1769C61.0256 76.6729 60.6286 76.5524 59.6271 76.7524C56.7346 77.3309 48.9901 71.7654 47.1036 67.7529C46.1236 65.6674 44.3011 64.0059 43.6776 64.6294C43.5331 64.7739 43.7731 66.0859 44.2111 67.5449C44.6496 69.0039 45.2456 71.5994 45.5366 73.3119L46.0656 76.4264L44.4206 77.9254C43.5161 78.7494 42.3821 79.5574 41.9006 79.7199C40.3116 80.2564 40.9916 80.8879 42.6471 80.4129C47.6401 78.9809 54.7196 80.4484 57.6506 83.5234C59.2806 85.2329 59.5256 85.8019 59.5256 87.8754C59.5256 90.2124 59.4386 90.3454 55.2076 94.4789C49.2576 100.292 48.5256 101.552 48.5256 105.979C48.5256 110.234 49.2641 110.422 50.5951 106.507C51.0871 105.058 51.9766 103.086 52.5711 102.124C54.2546 99.3999 57.0896 98.7859 57.7901 100.994C57.9566 101.519 58.2921 101.948 58.5356 101.948C59.0081 101.948 60.0181 98.7939 60.0226 97.3054C60.0301 95.0289 63.6326 91.9159 67.0256 91.2549C67.9881 91.0674 72.0381 90.6994 76.0256 90.4369C83.5931 89.9394 85.9616 89.6004 91.7756 88.1854C96.9881 86.9169 100.022 86.5049 108.026 85.9789C112.013 85.7169 116.12 85.2654 117.151 84.9754C118.182 84.6854 119.87 84.2089 120.901 83.9164C127.632 82.0079 131.5 81.5904 131.874 82.7324C132.078 83.3559 131.198 83.8099 125.776 85.8789C120.948 87.7214 116.229 88.9474 113.954 88.9499C111.597 88.9529 107.312 90.5824 107.126 91.5464C106.958 92.4209 110.511 94.2789 114.526 95.4154C115.763 95.7654 117.293 96.2534 117.924 96.4999C119.484 97.1084 125.392 97.0689 125.776 96.4479C126.223 95.7239 129.876 95.8284 130.143 96.5729C130.964 98.8579 126.455 104.421 120.511 108.458C117.825 110.282 117.118 110.531 114.617 110.539C112.131 110.546 108.725 111.245 103.217 112.878C102.359 113.132 97.0716 113.485 91.4666 113.662C81.7836 113.969 75.9891 114.543 73.7756 115.415C73.2256 115.632 71.8756 116.091 70.7756 116.436C66.0226 117.924 61.3986 120.677 58.0026 124.039C54.1186 127.885 52.4461 130.483 50.7366 135.326C49.7461 138.133 49.5451 139.681 49.5361 144.567C49.5251 150.825 50.4301 155.341 52.7471 160.59C55.4766 166.772 57.7471 174.78 58.5196 180.948C59.1891 186.294 59.9281 190.882 60.4926 193.198C60.7606 194.298 61.1941 196.098 61.4561 197.198C62.1731 200.208 65.1506 209.018 66.5251 212.198C67.2451 213.863 67.5856 216.38 68.0471 223.448C68.2896 227.16 68.7176 231.323 68.9986 232.698C70.4371 239.735 71.0721 245.147 71.5766 254.679C71.8816 260.444 72.3266 265.675 72.5661 266.304C73.0391 267.548 74.2361 267.819 74.8541 266.823C75.0671 266.479 75.2996 258.885 75.3706 249.948C75.4416 241.01 75.5511 232.348 75.6136 230.698C75.6761 229.048 75.3446 224.583 74.8766 220.775C74.4056 216.943 74.0456 210.693 74.0701 206.775C74.1261 197.837 75.1111 185.685 75.7756 185.736C76.0506 185.757 76.6231 186.716 77.0481 187.866C78.1511 190.853 79.1811 191.765 80.6781 191.083C82.8486 190.094 83.2861 190.947 83.1756 195.952C83.0631 201.057 81.9411 204.908 79.3521 209.074L77.7756 211.61V237.654C77.7756 264.465 77.9766 267.448 79.7851 267.448C81.0021 267.448 81.2391 266.313 81.6121 258.698C82.1666 247.385 82.9196 239.038 83.6871 235.698C84.5106 232.112 85.8916 226.79 86.5501 224.662C86.8116 223.818 87.0256 222.535 87.0256 221.811C87.0256 219.601 89.0496 215.06 90.8271 213.283C92.4091 211.701 93.0776 211.624 94.2251 212.892C95.0181 213.768 95.0411 215.053 94.5451 230.797C94.2506 240.126 93.7886 248.53 93.5181 249.475C93.2471 250.419 93.0256 251.946 93.0256 252.867C93.0256 253.789 92.6686 255.772 92.2326 257.273C91.2431 260.676 91.5106 261.448 93.6826 261.448C96.6766 261.448 96.9166 260.727 97.1821 250.948C97.4746 240.163 98.2861 235.635 100.989 229.698C102.928 225.439 103.026 224.826 103.026 216.968C103.026 211.993 103.305 207.575 103.776 205.117C104.188 202.961 104.538 200.41 104.553 199.448C104.594 196.803 106.114 193.309 107.537 192.59C108.923 191.888 114.002 191.798 117.722 192.409C121.94 193.102 121.881 192.868 122.184 210.166C122.397 222.377 122.639 226.23 123.472 230.698C124.24 234.821 124.5 238.302 124.511 244.606C124.519 249.415 124.747 253.427 125.043 253.981C125.715 255.236 127.626 255.219 128.777 253.947C129.608 253.028 129.657 252.178 129.372 243.594C129.132 236.383 129.225 233.493 129.778 230.97C130.836 226.143 131.526 218.75 131.526 212.241C131.526 209.081 131.779 205.865 132.088 205.096C135.93 195.539 139.026 185.557 139.026 182.722C139.026 181.364 140.257 178.945 142.727 175.448C143.601 174.21 144.614 172.523 144.979 171.698C145.344 170.873 145.841 169.807 146.084 169.33C146.327 168.852 146.526 168.144 146.526 167.756C146.526 167.367 147.086 166.071 147.77 164.874C148.632 163.365 149.016 161.935 149.02 160.212C149.023 158.845 149.519 156.145 150.123 154.212C151.05 151.241 151.672 150.251 154.15 147.809C157.382 144.622 158.526 142.178 158.526 138.459C158.526 137.16 158.725 135.445 158.967 134.647C159.21 133.85 159.679 132.185 160.009 130.948C160.338 129.71 160.823 127.91 161.085 126.948C161.346 125.985 161.754 123.623 161.989 121.698C162.375 118.549 162.627 117.972 164.509 115.949C165.659 114.713 166.726 113.073 166.879 112.306C167.032 111.539 167.588 110.611 168.114 110.242C168.886 109.701 169.105 108.816 169.251 105.635C169.35 103.47 169.649 101.135 169.915 100.448C170.18 99.7604 170.682 98.2979 171.03 97.1979C172.256 93.3209 174.914 88.1699 176.958 85.7069C178.631 83.6924 179.026 82.8294 179.026 81.1934C179.026 78.8229 177.972 77.0814 176.401 76.8569C174.943 76.6489 174.765 75.4814 175.554 71.2969C176.087 68.4739 176.084 67.5524 175.536 66.0359C174.671 63.6414 173.855 63.0999 170.529 62.7104C166.34 62.2204 166.026 62.0599 166.026 60.4074C166.026 59.5974 165.833 58.5434 165.597 58.0659C163.916 54.6599 163.232 53.5334 162.111 52.3229C161.411 51.5664 160.543 50.9479 160.182 50.9479C159.821 50.9479 159.526 50.7679 159.526 50.5484C159.526 49.8859 155.968 48.8009 152.776 48.4899L149.776 48.1979L148.439 45.4999C146.855 42.3039 145.46 40.7854 144.328 41.0244C143.608 41.1764 143.649 41.4164 144.658 42.9479C146.32 45.4709 147.026 48.8074 147.026 54.1439C147.026 58.7854 146.215 62.1349 144.993 62.5419C144.686 62.6444 142.487 62.0879 140.106 61.3059C135.546 59.8079 133.533 58.2134 133.528 56.0964C133.527 55.4904 133.324 54.4779 133.078 53.8464C132.831 53.2149 132.351 51.6854 132.01 50.4479C130.743 45.8459 130.232 44.7499 128.421 42.7479C127.401 41.6204 126.558 40.9369 126.546 41.2294ZM155.102 50.9929C159.798 53.7619 162.187 57.2024 162.241 61.2754C162.27 63.4419 162.028 64.1589 160.722 65.7729C158.756 68.2039 155.155 70.1249 153.394 69.6829C151.209 69.1344 150.032 64.8239 150.029 57.3554C150.026 51.7224 150.518 49.4479 151.741 49.4479C152.149 49.4479 153.661 50.1434 155.102 50.9929ZM139.428 63.5139C142.202 64.9944 143.736 66.4024 144.97 68.5979C146.337 71.0324 146.303 71.5029 144.651 73.0384C143.079 74.4984 140.616 75.1039 138.139 74.6394C135.508 74.1459 134.53 72.1184 134.528 67.1564C134.527 64.9334 134.676 62.9644 134.859 62.7814C135.498 62.1429 137.445 62.4549 139.428 63.5139Z"
      stroke="#D7D7D7" />
  </g>
  <defs>
    <filter id="filter0_d_16_7" x="36.4999" y="40.4993" width="147.026" height="235.449" filterUnits="userSpaceOnUse"
      color-interpolation-filters="sRGB">
      <feFlood flood-opacity="0" result="BackgroundImageFix" />
      <feColorMatrix in="SourceAlpha" type="matrix" values="0 0 0 0 0 0 0 0 0 0 0 0 0 0 0 0 0 0 127 0"
        result="hardAlpha" />
      <feOffset dy="4" />
      <feGaussianBlur stdDeviation="2" />
      <feComposite in2="hardAlpha" operator="out" />
      <feColorMatrix type="matrix" values="0 0 0 0 0 0 0 0 0 0 0 0 0 0 0 0 0 0 0.25 0" />
      <feBlend mode="normal" in2="BackgroundImageFix" result="effect1_dropShadow_16_7" />
      <feBlend mode="normal" in="SourceGraphic" in2="effect1_dropShadow_16_7" result="shape" />
    </filter>
    <filter id="filter1_f_16_7" x="0.499878" y="0.499268" width="219.026" height="307.449" filterUnits="userSpaceOnUse"
      color-interpolation-filters="sRGB">
      <feFlood flood-opacity="0" result="BackgroundImageFix" />
      <feBlend mode="normal" in="SourceGraphic" in2="BackgroundImageFix" result="shape" />
      <feGaussianBlur stdDeviation="20" result="effect1_foregroundBlur_16_7" />
    </filter>
  </defs>
</svg>
