<svg width="135" height="178" viewBox="0 0 135 178" fill="none" xmlns="http://www.w3.org/2000/svg">
<path fill-rule="evenodd" clip-rule="evenodd" d="M115.326 97.6484L115.321 97.6456C115.324 97.6465 115.326 97.6484 115.326 97.6484Z" fill="white"/>
<path d="M49.0677 0.113778C42.1048 0.9806 36.2886 3.94499 31.1714 9.23484C27.6362 12.8894 25.4821 16.2289 23.2862 21.4602C21.4564 25.8193 20.4541 29.3471 18.5372 38.1769C18.3282 39.1397 18.0499 40.4 17.9186 40.9777C17.7876 41.5553 17.4739 43.0488 17.2216 44.2967C16.9691 45.5444 16.7276 46.6225 16.6847 46.6922C16.6416 46.762 16.1745 46.9812 15.6465 47.1793C14.3223 47.6764 13.0461 48.34 11.8491 49.1542C10.5145 50.0621 9.94529 50.2865 7.95963 50.6872C6.02387 51.0779 5.16766 51.5309 3.90769 52.8315C2.27921 54.5123 1.24502 56.3774 0.821544 58.3974C-0.0259384 62.4387 1.18797 70.426 3.8803 78.5257C4.37602 80.0174 4.84312 81.3168 4.91797 81.413C4.993 81.5093 5.11234 81.785 5.18319 82.0257C5.43759 82.8887 7.89035 88.4659 8.5705 89.7277L12.7744 97.6213C12.7744 97.9614 14.3884 100.238 15.6644 101.698C17.3423 103.618 19.0296 105.186 21.0885 106.738C23.7488 108.743 25.3952 109.788 28.5655 111.48C34.2637 114.522 38.2682 117.795 40.6103 121.324C42.723 124.508 46.1702 131.842 48.0007 137.048C48.8641 139.502 48.6709 141.73 47.4073 143.893C46.6304 145.223 45.8407 145.782 43.5623 146.618C37.4345 148.864 35.3617 150.186 34.263 152.547C33.8526 153.429 33.8046 153.741 33.8025 155.545C33.8001 157.487 33.8208 157.599 34.3911 158.731C34.716 159.376 35.1586 160.071 35.3746 160.275L35.7672 160.645L35.7433 159.525C35.7227 158.562 35.7927 158.287 36.2429 157.559C36.5308 157.094 36.8449 156.738 36.9408 156.768C37.0368 156.798 37.216 157.421 37.3389 158.151C37.7196 160.412 39.2678 163.039 41.1144 164.557C41.559 164.923 41.9507 165.191 41.9851 165.153C42.0195 165.115 41.8645 164.376 41.6406 163.509C41.1481 161.601 41.0778 159.132 41.4834 157.978C41.9683 156.6 42.5436 156.184 45.11 155.357C48.3242 154.322 48.6172 154.43 48.9939 156.79C49.2811 158.59 49.8286 159.657 51.1184 160.928C51.9008 161.699 53.1524 162.546 53.5101 162.546C53.7021 162.546 53.5937 162.042 53.2234 161.212C52.9277 160.549 52.8399 160.007 52.8308 158.783C52.8204 157.363 52.8671 157.126 53.3051 156.378C54.4979 154.343 56.6863 154.082 58.8389 155.72C59.2698 156.048 59.2713 156.059 58.9616 156.542C57.5657 158.723 57.2881 161.8 58.3118 163.744L58.6491 164.384L58.6568 163.584C58.6683 162.377 59.146 161.186 59.9213 160.432C61.1371 159.248 62.441 159.1 62.8537 160.099C63.1934 160.922 63.8188 161.321 64.7692 161.321C65.6987 161.321 66.6308 161.837 66.9911 162.552C67.4207 163.403 67.2658 164.013 66.2639 165.414C64.7354 167.551 64.6813 167.722 64.7048 170.336C64.7261 172.706 65.0632 174.6 65.8514 176.774C66.2932 177.993 66.5164 178.186 66.5164 177.35C66.5164 176.288 67.3221 174.618 68.6367 172.956C69.6985 171.613 70.7536 169.735 71.425 167.993C71.7628 167.116 73.6309 164.511 74.7223 163.394C75.6787 162.416 76.0269 162.18 76.8908 161.928C78.1731 161.554 79.7639 161.654 80.774 162.171C81.1726 162.374 81.8375 162.951 82.2519 163.452C83.9537 165.509 84.0504 165.579 85.009 165.452C85.8015 165.346 85.8931 165.373 86.1637 165.787C86.4021 166.152 86.4372 166.482 86.3487 167.531C86.2889 168.243 86.1107 169.148 85.953 169.544C85.7952 169.939 85.7226 170.319 85.7917 170.387C85.8608 170.455 86.3346 170.062 86.8446 169.513C88.408 167.832 88.9585 165.721 88.411 163.509C87.8503 161.243 86.932 159.98 85.0971 158.95C83.8265 158.237 83.3008 157.778 82.6826 156.841C81.5734 155.159 81.1766 152.527 81.8625 151.398C82.2617 150.742 82.629 150.519 83.558 150.37C85.0725 150.127 86.4438 150.93 87.6096 152.744C88.3975 153.97 88.4432 153.784 88.1505 150.548C87.9788 148.652 87.9749 148.001 88.1337 147.703C88.4068 147.191 88.6553 147.216 89.4739 147.838C90.2038 148.392 90.7927 148.506 91.0741 148.149C91.1691 148.029 91.2998 147.387 91.3648 146.723C91.4865 145.48 91.6979 144.867 92.0052 144.867C92.102 144.867 92.8855 145.536 93.7462 146.355C95.1477 147.687 95.3807 147.843 95.9765 147.843C96.6689 147.843 97.0109 147.58 97.6415 146.562C98.1206 145.789 98.4372 143.937 98.3232 142.574C98.2677 141.909 98.2888 141.366 98.3701 141.366C98.4515 141.366 98.7804 141.621 99.1011 141.933C99.9672 142.775 100.061 142.483 99.9358 139.327L99.8309 136.676L102.149 136.569C113.834 136.029 112.841 136.163 115.634 134.757C117.851 133.641 118.751 133.586 121.158 134.416C123.317 135.16 124.192 135.325 127.848 135.673C131.26 135.997 133.718 136.02 134.008 135.729C134.334 135.403 134.259 134.891 133.72 133.751C132.578 131.339 128.839 126.22 125.725 122.806C123.47 120.334 123.1 119.635 124.367 120.242C125.188 120.634 125.842 120.628 125.842 120.228C125.842 119.71 124.427 117.71 123.227 116.532C121.968 115.296 120.719 114.394 119.094 113.548C117.919 112.936 117.849 112.795 117.773 110.873C117.734 109.899 117.873 109.697 118.308 110.092C118.843 110.578 119.037 110.445 119.037 109.591C119.037 108.219 118.2 105.283 116.941 102.243C116.542 101.281 116.054 99.9021 115.856 99.1801C115.658 98.458 115.42 97.7689 115.326 97.6484L115.321 97.6456C114.034 96.9544 114.03 92.3147 114.188 90.0783L114.071 88.4589C113.874 85.7426 113.375 84.5386 111.41 82.0399C109.477 79.5821 109.026 78.5605 108.199 74.7613C107.99 73.7986 107.629 72.2625 107.397 71.3479C107.165 70.4333 106.868 69.2518 106.736 68.7223C105.672 64.4622 104.699 62.6508 100.905 57.8695C96.9969 52.9439 94.3941 50.7539 89.1996 48.0204C82.5998 44.5475 77.4687 43.1958 70.3606 43.0579L66.6146 42.9852L66.341 42.419C66.1906 42.1077 65.7251 41.0652 65.3065 40.1024C64.4325 38.0919 63.9397 37.0122 61.6312 32.0504C60.2291 29.0368 60.1256 27.6917 61.1411 25.6828C61.8628 24.2553 64.6309 21.2944 65.7535 20.7491C66.5378 20.3682 66.5959 20.3656 69.543 20.5742C71.1893 20.6908 72.6749 20.8254 72.8445 20.8734C73.0139 20.9212 73.3173 21.2842 73.5185 21.68C73.8303 22.2928 73.8736 22.6279 73.811 23.9428C73.7691 24.82 73.8068 25.4862 73.898 25.4862C73.9863 25.4862 74.6246 24.9152 75.3164 24.2171C77.3759 22.139 78.1442 20.0962 77.9904 17.1071C77.7517 12.4613 74.8706 8.6705 70.4591 7.19767C69.778 6.97029 68.8283 6.72732 68.3485 6.65766C67.5783 6.5458 67.3188 6.38284 66.1358 5.26832C63.4506 2.73875 60.3659 1.14322 56.6579 0.366544C55.0027 0.0197798 50.9162 -0.116231 49.0677 0.113778Z" fill="white"/>
</svg>
