<svg width="900" height="93" viewBox="0 0 900 93" fill="none" xmlns="http://www.w3.org/2000/svg">
<path d="M0 79L18.8 75.2C37.7 71.3 75.3 63.7 112.8 55.5C150.3 47.3 187.7 38.7 225.2 37.3C262.7 36 300.3 42 337.8 47.2C375.3 52.3 412.7 56.7 450.2 54.3C487.7 52 525.3 43 562.8 37.7C600.3 32.3 637.7 30.7 675.2 33.7C712.7 36.7 750.3 44.3 787.8 50.5C825.3 56.7 862.7 61.3 881.3 63.7L900 66V0H881.3C862.7 0 825.3 0 787.8 0C750.3 0 712.7 0 675.2 0C637.7 0 600.3 0 562.8 0C525.3 0 487.7 0 450.2 0C412.7 0 375.3 0 337.8 0C300.3 0 262.7 0 225.2 0C187.7 0 150.3 0 112.8 0C75.3 0 37.7 0 18.8 0H0V79Z" fill="#333333"/>
</svg>
